PathFileType	4	(X/Y/Z)	C:\Users\italobelli\Desktop\GitHub\PTbot_officialCBL\Personal_Results\FLX02_noisy2.trc
DataRate	CameraRate	NumFrames	NumMarkers	Units	OrigDataRate	OrigDataStartFrame	OrigNumFrames
106.125000	106.125000	51	9	m	106.125000	426	850
Frame#	Time		gu		centelbow		EpL		centpxt8		centijc7		ij		ts		aa		ai
			X1	Y1	Z1	X2	Y2	Z2	X3	Y3	Z3	X4	Y4	Z4	X5	Y5	Z5	X6	Y6	Z6	X7	Y7	Z7	X8	Y8	Z8	X9	Y9	Z9

426	4.0047	-0.098573	0.061844	0.10055	-0.013245	0.25386	0.20016	-0.038914	0.26568	0.18467	-0.046816	-0.15316	-0.008669	-0.046816	0.031938	-0.008669	0	0	0	-0.1372	-0.02204	0.054718	-0.13555	0.085244	0.10681	-0.11213	-0.065963	0.15636
427	4.0141	-0.098602	0.061847	0.10065	-0.012412	0.25337	0.20042	-0.038022	0.2653	0.18497	-0.046816	-0.15316	-0.008669	-0.046816	0.031938	-0.008669	0	0	0	-0.13736	-0.021952	0.054662	-0.13552	0.085262	0.10692	-0.11237	-0.06605	0.15627
428	4.0236	-0.098634	0.061849	0.10075	-0.011532	0.25285	0.20069	-0.037084	0.2649	0.18527	-0.046816	-0.15316	-0.008669	-0.046816	0.031938	-0.008669	0	0	0	-0.13753	-0.021863	0.054607	-0.13548	0.085276	0.10703	-0.11263	-0.066144	0.15617
429	4.033	-0.098669	0.061849	0.10086	-0.010607	0.25231	0.20095	-0.036101	0.26447	0.18558	-0.046816	-0.15316	-0.008669	-0.046816	0.031938	-0.008669	0	0	0	-0.13772	-0.021772	0.054554	-0.13545	0.085286	0.10714	-0.11289	-0.066243	0.15608
430	4.0424	-0.098706	0.061849	0.10097	-0.0096386	0.25175	0.20122	-0.035076	0.26403	0.1859	-0.046816	-0.15316	-0.008669	-0.046816	0.031938	-0.008669	0	0	0	-0.13792	-0.021681	0.054503	-0.13541	0.085293	0.10727	-0.11317	-0.066347	0.15598
431	4.0518	-0.098745	0.061848	0.10109	-0.0086286	0.25116	0.20149	-0.034008	0.26358	0.18623	-0.046816	-0.15316	-0.008669	-0.046816	0.031938	-0.008669	0	0	0	-0.13813	-0.021588	0.054453	-0.13537	0.085296	0.10739	-0.11345	-0.066456	0.15587
432	4.0612	-0.098786	0.061846	0.10121	-0.0075786	0.25055	0.20177	-0.032902	0.2631	0.18656	-0.046816	-0.15316	-0.008669	-0.046816	0.031938	-0.008669	0	0	0	-0.13834	-0.021494	0.054405	-0.13533	0.085295	0.10752	-0.11374	-0.066571	0.15576
433	4.0707	-0.09883	0.061843	0.10134	-0.0064904	0.24992	0.20204	-0.031757	0.26261	0.1869	-0.046816	-0.15316	-0.008669	-0.046816	0.031938	-0.008669	0	0	0	-0.13857	-0.021399	0.054358	-0.13529	0.085291	0.10766	-0.11404	-0.06669	0.15565
434	4.0801	-0.098875	0.06184	0.10147	-0.0053656	0.24927	0.20232	-0.030575	0.2621	0.18725	-0.046816	-0.15316	-0.008669	-0.046816	0.031938	-0.008669	0	0	0	-0.13881	-0.021303	0.054313	-0.13525	0.085284	0.1078	-0.11435	-0.066814	0.15553
435	4.0895	-0.098922	0.061835	0.10161	-0.0042059	0.2486	0.2026	-0.029359	0.26158	0.1876	-0.046816	-0.15316	-0.008669	-0.046816	0.031938	-0.008669	0	0	0	-0.13905	-0.021206	0.054268	-0.13521	0.085274	0.10794	-0.11466	-0.066942	0.15542
436	4.0989	-0.098971	0.061829	0.10175	-0.0030131	0.2479	0.20288	-0.028109	0.26104	0.18796	-0.046816	-0.15316	-0.008669	-0.046816	0.031938	-0.008669	0	0	0	-0.13931	-0.021108	0.054225	-0.13516	0.085261	0.10809	-0.11499	-0.067075	0.15529
437	4.1084	-0.099022	0.061823	0.10189	-0.0017888	0.24719	0.20317	-0.026828	0.26049	0.18832	-0.046816	-0.15316	-0.008669	-0.046816	0.031938	-0.008669	0	0	0	-0.13957	-0.021008	0.054183	-0.13512	0.085244	0.10824	-0.11531	-0.067212	0.15516
438	4.1178	-0.099074	0.061816	0.10204	-0.0005348	0.24646	0.20346	-0.025517	0.25992	0.18869	-0.046816	-0.15316	-0.008669	-0.046816	0.031938	-0.008669	0	0	0	-0.13983	-0.020908	0.054142	-0.13507	0.085225	0.1084	-0.11565	-0.067354	0.15503
439	4.1272	-0.099127	0.061808	0.10219	0.00074726	0.24571	0.20375	-0.024178	0.25933	0.18907	-0.046816	-0.15316	-0.008669	-0.046816	0.031938	-0.008669	0	0	0	-0.14011	-0.020807	0.054101	-0.13502	0.085203	0.10856	-0.11599	-0.067499	0.1549
440	4.1366	-0.099182	0.061799	0.10234	0.0020557	0.24495	0.20404	-0.022812	0.25874	0.18945	-0.046816	-0.15316	-0.008669	-0.046816	0.031938	-0.008669	0	0	0	-0.14039	-0.020704	0.054062	-0.13498	0.085178	0.10872	-0.11633	-0.067648	0.15476
441	4.1461	-0.099238	0.061789	0.1025	0.0033887	0.24416	0.20434	-0.02142	0.25812	0.18984	-0.046816	-0.15316	-0.008669	-0.046816	0.031938	-0.008669	0	0	0	-0.14068	-0.0206	0.054023	-0.13493	0.08515	0.10889	-0.11668	-0.067801	0.15462
442	4.1555	-0.099295	0.061779	0.10266	0.0047446	0.24336	0.20464	-0.020006	0.2575	0.19023	-0.046816	-0.15316	-0.008669	-0.046816	0.031938	-0.008669	0	0	0	-0.14097	-0.020496	0.053985	-0.13488	0.08512	0.10906	-0.11704	-0.067958	0.15447
443	4.1649	-0.099352	0.061768	0.10282	0.0061218	0.24254	0.20494	-0.01857	0.25686	0.19063	-0.046816	-0.15316	-0.008669	-0.046816	0.031938	-0.008669	0	0	0	-0.14127	-0.02039	0.053947	-0.13483	0.085088	0.10923	-0.1174	-0.068117	0.15432
444	4.1743	-0.099411	0.061756	0.10299	0.0075185	0.24171	0.20524	-0.017113	0.25621	0.19104	-0.046816	-0.15316	-0.008669	-0.046816	0.031938	-0.008669	0	0	0	-0.14157	-0.020284	0.05391	-0.13478	0.085053	0.10941	-0.11776	-0.068281	0.15417
445	4.1837	-0.09947	0.061744	0.10315	0.008933	0.24086	0.20555	-0.015638	0.25555	0.19145	-0.046816	-0.15316	-0.008669	-0.046816	0.031938	-0.008669	0	0	0	-0.14187	-0.020176	0.053873	-0.13473	0.085015	0.10959	-0.11812	-0.068447	0.15401
446	4.1932	-0.09953	0.061731	0.10333	0.010364	0.24	0.20585	-0.014146	0.25488	0.19186	-0.046816	-0.15316	-0.008669	-0.046816	0.031938	-0.008669	0	0	0	-0.14218	-0.020067	0.053836	-0.13467	0.084975	0.10977	-0.11849	-0.068616	0.15386
447	4.2026	-0.09959	0.061717	0.1035	0.011809	0.23912	0.20617	-0.012639	0.25419	0.19228	-0.046816	-0.15316	-0.008669	-0.046816	0.031938	-0.008669	0	0	0	-0.1425	-0.019958	0.0538	-0.13462	0.084934	0.10995	-0.11886	-0.068788	0.15369
448	4.212	-0.099651	0.061702	0.10367	0.013266	0.23823	0.20648	-0.011118	0.2535	0.19271	-0.046816	-0.15316	-0.008669	-0.046816	0.031938	-0.008669	0	0	0	-0.14281	-0.019847	0.053764	-0.13456	0.08489	0.11014	-0.11923	-0.068962	0.15353
449	4.2214	-0.099712	0.061687	0.10385	0.014735	0.23732	0.2068	-0.0095854	0.25279	0.19314	-0.046816	-0.15316	-0.008669	-0.046816	0.031938	-0.008669	0	0	0	-0.14313	-0.019736	0.053728	-0.13451	0.084844	0.11032	-0.11961	-0.06914	0.15336
450	4.2309	-0.099773	0.061672	0.10403	0.016213	0.23641	0.20712	-0.0080422	0.25207	0.19357	-0.046816	-0.15316	-0.008669	-0.046816	0.031938	-0.008669	0	0	0	-0.14345	-0.019623	0.053692	-0.13445	0.084796	0.11051	-0.11998	-0.069319	0.15318
451	4.2403	-0.099834	0.061655	0.10421	0.017698	0.23548	0.20744	-0.0064903	0.25135	0.19401	-0.046816	-0.15316	-0.008669	-0.046816	0.031938	-0.008669	0	0	0	-0.14377	-0.01951	0.053655	-0.13439	0.084747	0.1107	-0.12036	-0.069501	0.15301
452	4.2497	-0.099895	0.061638	0.1044	0.01919	0.23454	0.20776	-0.0049313	0.25061	0.19446	-0.046816	-0.15316	-0.008669	-0.046816	0.031938	-0.008669	0	0	0	-0.14409	-0.019396	0.053619	-0.13434	0.084695	0.1109	-0.12073	-0.069684	0.15283
453	4.2591	-0.099956	0.061621	0.10458	0.020685	0.23358	0.20809	-0.0033669	0.24987	0.1949	-0.046816	-0.15316	-0.008669	-0.046816	0.031938	-0.008669	0	0	0	-0.14441	-0.01928	0.053582	-0.13428	0.084642	0.11109	-0.12111	-0.06987	0.15264
454	4.2686	-0.10002	0.061603	0.10477	0.022183	0.23262	0.20842	-0.0017986	0.24911	0.19536	-0.046816	-0.15316	-0.008669	-0.046816	0.031938	-0.008669	0	0	0	-0.14473	-0.019164	0.053545	-0.13422	0.084588	0.11128	-0.12148	-0.070058	0.15246
455	4.278	-0.10008	0.061585	0.10496	0.023682	0.23165	0.20875	-0.00022808	0.24835	0.19581	-0.046816	-0.15316	-0.008669	-0.046816	0.031938	-0.008669	0	0	0	-0.14505	-0.019047	0.053507	-0.13416	0.084532	0.11148	-0.12186	-0.070247	0.15227
456	4.2874	-0.10014	0.061566	0.10514	0.02518	0.23067	0.20909	0.001343	0.24758	0.19628	-0.046816	-0.15316	-0.008669	-0.046816	0.031938	-0.008669	0	0	0	-0.14537	-0.018929	0.053469	-0.13409	0.084474	0.11168	-0.12223	-0.070437	0.15207
457	4.2968	-0.10019	0.061546	0.10533	0.026675	0.22968	0.20943	0.002913	0.2468	0.19674	-0.046816	-0.15316	-0.008669	-0.046816	0.031938	-0.008669	0	0	0	-0.14569	-0.01881	0.05343	-0.13403	0.084416	0.11188	-0.1226	-0.070629	0.15188
458	4.3062	-0.10025	0.061526	0.10552	0.028166	0.22868	0.20977	0.0044803	0.24602	0.19721	-0.046816	-0.15316	-0.008669	-0.046816	0.031938	-0.008669	0	0	0	-0.146	-0.018691	0.053391	-0.13397	0.084356	0.11207	-0.12297	-0.070822	0.15168
459	4.3157	-0.10031	0.061506	0.10572	0.029651	0.22768	0.21012	0.0060433	0.24523	0.19768	-0.046816	-0.15316	-0.008669	-0.046816	0.031938	-0.008669	0	0	0	-0.14631	-0.01857	0.05335	-0.1339	0.084295	0.11227	-0.12334	-0.071016	0.15148
460	4.3251	-0.10037	0.061485	0.10591	0.031127	0.22667	0.21046	0.0076004	0.24443	0.19816	-0.046816	-0.15316	-0.008669	-0.046816	0.031938	-0.008669	0	0	0	-0.14662	-0.018449	0.053309	-0.13384	0.084233	0.11247	-0.1237	-0.071211	0.15127
461	4.3345	-0.10042	0.061464	0.1061	0.032595	0.22565	0.21081	0.0091498	0.24363	0.19864	-0.046816	-0.15316	-0.008669	-0.046816	0.031938	-0.008669	0	0	0	-0.14693	-0.018326	0.053267	-0.13377	0.08417	0.11267	-0.12406	-0.071407	0.15106
462	4.3439	-0.10047	0.061442	0.10629	0.034051	0.22462	0.21117	0.01069	0.24282	0.19913	-0.046816	-0.15316	-0.008669	-0.046816	0.031938	-0.008669	0	0	0	-0.14723	-0.018203	0.053224	-0.13371	0.084106	0.11287	-0.12442	-0.071603	0.15085
463	4.3534	-0.10053	0.061421	0.10648	0.035495	0.22359	0.21153	0.012219	0.24201	0.19961	-0.046816	-0.15316	-0.008669	-0.046816	0.031938	-0.008669	0	0	0	-0.14753	-0.018079	0.053179	-0.13364	0.084041	0.11307	-0.12477	-0.0718	0.15064
464	4.3628	-0.10058	0.061398	0.10668	0.036923	0.22255	0.21189	0.013736	0.24119	0.20011	-0.046816	-0.15316	-0.008669	-0.046816	0.031938	-0.008669	0	0	0	-0.14783	-0.017954	0.053134	-0.13357	0.083976	0.11327	-0.12512	-0.071997	0.15042
465	4.3722	-0.10063	0.061376	0.10687	0.038336	0.22151	0.21225	0.015239	0.24037	0.2006	-0.046816	-0.15316	-0.008669	-0.046816	0.031938	-0.008669	0	0	0	-0.14811	-0.017829	0.053087	-0.1335	0.08391	0.11347	-0.12546	-0.072194	0.1502
466	4.3816	-0.10067	0.061353	0.10706	0.03973	0.22047	0.21261	0.016726	0.23955	0.2011	-0.046816	-0.15316	-0.008669	-0.046816	0.031938	-0.008669	0	0	0	-0.1484	-0.017703	0.053039	-0.13344	0.083844	0.11366	-0.1258	-0.072391	0.14997
467	4.391	-0.10072	0.061329	0.10725	0.041105	0.21942	0.21298	0.018196	0.23872	0.2016	-0.046816	-0.15316	-0.008669	-0.046816	0.031938	-0.008669	0	0	0	-0.14867	-0.017575	0.052989	-0.13337	0.083777	0.11386	-0.12613	-0.072588	0.14975
468	4.4005	-0.10076	0.061306	0.10744	0.042458	0.21837	0.21335	0.019646	0.23788	0.2021	-0.046816	-0.15316	-0.008669	-0.046816	0.031938	-0.008669	0	0	0	-0.14894	-0.017447	0.052938	-0.1333	0.083709	0.11406	-0.12646	-0.072785	0.14952
469	4.4099	-0.10081	0.061282	0.10763	0.043789	0.21732	0.21373	0.021076	0.23705	0.20261	-0.046816	-0.15316	-0.008669	-0.046816	0.031938	-0.008669	0	0	0	-0.14921	-0.017319	0.052885	-0.13322	0.083642	0.11425	-0.12678	-0.072981	0.14928
470	4.4193	-0.10084	0.061258	0.10782	0.045094	0.21626	0.21411	0.022484	0.23621	0.20312	-0.046816	-0.15316	-0.008669	-0.046816	0.031938	-0.008669	0	0	0	-0.14946	-0.017189	0.05283	-0.13315	0.083574	0.11444	-0.12709	-0.073177	0.14905
471	4.4287	-0.10088	0.061234	0.10801	0.046373	0.2152	0.21449	0.023868	0.23537	0.20363	-0.046816	-0.15316	-0.008669	-0.046816	0.031938	-0.008669	0	0	0	-0.14971	-0.017059	0.052774	-0.13308	0.083506	0.11464	-0.12739	-0.073372	0.14881
472	4.4382	-0.10092	0.061209	0.10819	0.047623	0.21415	0.21487	0.025226	0.23453	0.20415	-0.046816	-0.15316	-0.008669	-0.046816	0.031938	-0.008669	0	0	0	-0.14995	-0.016928	0.052715	-0.13301	0.083438	0.11483	-0.12769	-0.073566	0.14857
473	4.4476	-0.10095	0.061185	0.10838	0.048844	0.21309	0.21526	0.026557	0.23369	0.20466	-0.046816	-0.15316	-0.008669	-0.046816	0.031938	-0.008669	0	0	0	-0.15018	-0.016796	0.052655	-0.13293	0.083371	0.11501	-0.12798	-0.073759	0.14833
474	4.457	-0.10098	0.06116	0.10856	0.050033	0.21203	0.21565	0.027859	0.23285	0.20518	-0.046816	-0.15316	-0.008669	-0.046816	0.031938	-0.008669	0	0	0	-0.1504	-0.016664	0.052593	-0.13286	0.083303	0.1152	-0.12826	-0.073951	0.14808
475	4.4664	-0.10101	0.061135	0.10875	0.051189	0.21098	0.21605	0.029131	0.232	0.2057	-0.046816	-0.15316	-0.008669	-0.046816	0.031938	-0.008669	0	0	0	-0.15061	-0.016531	0.052528	-0.13278	0.083236	0.11538	-0.12853	-0.074141	0.14783
476	4.4759	-0.10103	0.06111	0.10893	0.052309	0.20992	0.21645	0.030371	0.23116	0.20623	-0.046816	-0.15316	-0.008669	-0.046816	0.031938	-0.008669	0	0	0	-0.15081	-0.016397	0.052462	-0.13271	0.083169	0.11557	-0.12879	-0.07433	0.14758
